/* XPM */
static const char * c_mag_xpm[] = {
"32 32 3 1",
" 	c None",
".	c #FFFFFF",
"+	c #000000",
"    .....                       ",
"   .+++++..                     ",
"  .++    ++.                    ",
" .+  .     +.                   ",
" .+ ..     ++.                  ",
".+ ..       +.                  ",
".+ .        +.                  ",
".+ .        +.                  ",
".+          +.                  ",
".++        +.                   ",
" .+        ++.                  ",
"  .++    +++++.                 ",
"   ..+++++..+++.                ",
"     .....  .+++.               ",
"             .+++.              ",
"              .+++.             ",
"               .+.              ",
"                .               ",
"                                ",
"                                ",
"                                ",
"                                ",
"                                ",
"                                ",
"                                ",
"                                ",
"                                ",
"                                ",
"                                ",
"                                ",
"                                ",
"                                "};
