/* XPM */
static const char * cross_xpm[] = {
"20 20 175 2",
"  	c None",
". 	c #D9D9D9",
"+ 	c #D3D3D3",
"@ 	c #DADADA",
"# 	c #CDCCCC",
"$ 	c #672E2E",
"% 	c #604444",
"& 	c #B0AEAE",
"* 	c #D9D8D8",
"= 	c #6E2020",
"- 	c #E10000",
"; 	c #C80000",
"> 	c #471F1F",
", 	c #A1A1A1",
"' 	c #C1BFBF",
") 	c #755D5D",
"! 	c #7B5E5E",
"~ 	c #D2D0D0",
"{ 	c #C7C2C2",
"] 	c #A10101",
"^ 	c #FD0000",
"/ 	c #FB0000",
"( 	c #D00000",
"_ 	c #4E1010",
": 	c #8D8D8D",
"< 	c #D6D6D6",
"[ 	c #8A6F6F",
"} 	c #900303",
"| 	c #D80000",
"1 	c #BF0000",
"2 	c #7A6E6E",
"3 	c #BFBBBB",
"4 	c #930101",
"5 	c #E40000",
"6 	c #FE0000",
"7 	c #E60000",
"8 	c #580707",
"9 	c #5F5E5E",
"0 	c #D0D0D0",
"a 	c #D9D5D5",
"b 	c #814242",
"c 	c #BE0000",
"d 	c #F50000",
"e 	c #DD0000",
"f 	c #6A0202",
"g 	c #747474",
"h 	c #D7D7D7",
"i 	c #8C7E7E",
"j 	c #7C0909",
"k 	c #C40000",
"l 	c #EF0000",
"m 	c #FF0000",
"n 	c #E00000",
"o 	c #620505",
"p 	c #5E5D5D",
"q 	c #CFCFCF",
"r 	c #C5B9B9",
"s 	c #7B1E1E",
"t 	c #D20000",
"u 	c #F90000",
"v 	c #500404",
"w 	c #2F2F2F",
"x 	c #A0A0A0",
"y 	c #CECCCC",
"z 	c #774848",
"A 	c #A60101",
"B 	c #F40000",
"C 	c #E50000",
"D 	c #610606",
"E 	c #693F3F",
"F 	c #910404",
"G 	c #F60000",
"H 	c #3A0808",
"I 	c #292929",
"J 	c #949494",
"K 	c #927D7D",
"L 	c #940404",
"M 	c #E70000",
"N 	c #EB0000",
"O 	c #C60000",
"P 	c #F20000",
"Q 	c #C00000",
"R 	c #2E0909",
"S 	c #2E2E2E",
"T 	c #C1B8B8",
"U 	c #721010",
"V 	c #D30000",
"W 	c #380808",
"X 	c #3C3C3C",
"Y 	c #A7A7A7",
"Z 	c #8C7474",
"` 	c #F80000",
" .	c #EE0000",
"..	c #700303",
"+.	c #969696",
"@.	c #BCB3B3",
"#.	c #8A0505",
"$.	c #FC0000",
"%.	c #FA0000",
"&.	c #C20000",
"*.	c #431515",
"=.	c #B3B3B3",
"-.	c #CBCBCB",
";.	c #710E0E",
">.	c #ED0000",
",.	c #B30000",
"'.	c #E30000",
").	c #9C0000",
"!.	c #4F4545",
"~.	c #CCCCCC",
"{.	c #6D5454",
"].	c #CE0000",
"^.	c #9D0000",
"/.	c #1F1818",
"(.	c #A20000",
"_.	c #EA0000",
":.	c #670707",
"<.	c #8A8989",
"[.	c #771010",
"}.	c #360606",
"|.	c #656565",
"1.	c #684949",
"2.	c #D10000",
"3.	c #502424",
"4.	c #B1B1B1",
"5.	c #867C7C",
"6.	c #8F0000",
"7.	c #1C1A1A",
"8.	c #ADADAD",
"9.	c #612828",
"0.	c #D90000",
"a.	c #F70000",
"b.	c #A00000",
"c.	c #4A3E3E",
"d.	c #C6C6C6",
"e.	c #D5D5D5",
"f.	c #6C0F0F",
"g.	c #E20000",
"h.	c #440303",
"i.	c #434343",
"j.	c #C8C8C8",
"k.	c #6F1212",
"l.	c #EC0000",
"m.	c #787474",
"n.	c #8A7E7E",
"o.	c #BB0000",
"p.	c #B20000",
"q.	c #1C1515",
"r.	c #7C7C7C",
"s.	c #D8D8D8",
"t.	c #AFACAC",
"u.	c #8F0303",
"v.	c #CA0000",
"w.	c #603939",
"x.	c #D6D5D5",
"y.	c #722626",
"z.	c #780101",
"A.	c #333333",
"B.	c #917D7D",
"C.	c #9E0101",
"D.	c #492727",
"E.	c #7A3F3F",
"F.	c #760202",
"G.	c #760101",
"H.	c #470606",
"I.	c #636363",
"J.	c #ACA9A9",
"K.	c #5A5353",
"L.	c #8F8E8E",
"M.	c #C7C7C7",
"N.	c #767676",
"O.	c #5E5E5E",
"P.	c #716A6A",
"Q.	c #7D7B7B",
"R.	c #B7B7B7",
"      . + @                             ",
"    # $ % &                             ",
"  * = - ; > , @               ' ) ! ~   ",
"  { ] ^ / ( _ : <           [ } | 1 2   ",
"  3 4 5 / 6 7 8 9 0     a b c d e f g h ",
"    i j k l m n o p q r s t u ( v w x < ",
"      y z A B m C D E F 7 G c H I J <   ",
"          K L M 6 N O P / Q R S x @     ",
"            T U C m m ^ V W X Y         ",
"              Z 1 ` m  ...I +.          ",
"            @.#.l 6 $.%.&.*.=.          ",
"          -.;.- m >.,.'.d ).!.~.        ",
"          {.].%.u ^./.(.G _.:.<..       ",
"        h [.u m | }.|.1.&.%.2.3.4.      ",
"        5.; m G 6.7.8.. 9.0.a.b.c.d.    ",
"      e.f.>.m g.h.i.j.  # k.l.>...m.@   ",
"      n.o.$.^ p.q.r.s.    t.u.l v.w.x.  ",
"      y.| B 7 z.A.d.        B.C.k D.+   ",
"      E.F.G.G.H.I.@           J.K.L.    ",
"      M.N.O.P.Q.R.                      "};
