/* XPM */
static const char *editundooff[]={
"16 16 3 1",
". c None",
"# c #a0a0a0",
"a c #c3c3c3",
"................",
"................",
"................",
"................",
"................",
"...#............",
"..##.a#######a..",
".###############",
"a###aaaaaaa####a",
"#####......aa##a",
"#aaaaa.......aa.",
"................",
"................",
"................",
"................",
"................"};
