/* XPM */
static const char *editpasteoff[]={
"16 16 6 1",
". c None",
"b c #808080",
"# c #a0a0a0",
"d c #aaaaaa",
"a c #c3c3c3",
"c c #d5d5d5",
"..####aaa####...",
".#aaaaaaaaaaa#..",
".#aaabbbbbaaa#..",
".#aaaaaaaaaaa#..",
".#aaaa########..",
".#aaaa#ccccc##..",
".#aaaa#c##cc#.#.",
".#aaaa#ccccc####",
".#aaaa#c####ccc#",
".#aaaa#cccccccc#",
".#aaaa#c##c###c#",
".#aaaa#cccccccc#",
".#aaaa#c###c##c#",
".a###a#c#cccccc#",
"......#dddddddd#",
"......##########"};
