/* XPM */
static const char *editcutoff[]={
"16 16 37 1",
". c None",
"x c #878787",
"I c #898989",
"k c #8a8a8a",
"q c #8b8b8b",
"j c #8c8c8c",
"C c #8d8d8d",
"H c #8e8e8e",
"v c #8f8f8f",
"D c #909090",
"g c #9f9f9f",
"i c #a0a0a0",
"z c #a8a8a8",
"s c #a9a9a9",
"r c #aaaaaa",
"G c #ababab",
"F c #acacac",
"u c #bababa",
"o c #bbbbbb",
"E c #bcbcbc",
"w c #bdbdbd",
"p c #bebebe",
"f c #bfbfbf",
"# c #c0c0c0",
"h c #c1c1c1",
"a c #c2c2c2",
"m c #c3c3c3",
"B c #d8d8d8",
"y c #d9d9d9",
"A c #dadada",
"l c #dddddd",
"t c #dedede",
"b c #dfdfdf",
"c c #e0e0e0",
"e c #e1e1e1",
"d c #e2e2e2",
"n c #e3e3e3",
".........##.....",
"........ab#.....",
"........ac#.....",
".......#c#......",
".......#d#......",
".......#b#.deffg",
"......hch.hhacbi",
"..hjklmd##dne##o",
"pkqprqp#de###...",
"ks.tuvhw#a......",
"xy.zkABCqB......",
"kzwD.ACwsk......",
"ECF..vGboC......",
"....rE..H#......",
"....CzBsj.......",
"....EkIkp......."};
