/* XPM */
static const char *editundo[]={
"16 16 4 1",
". c None",
"# c #000080",
"b c #0000ff",
"a c #c0c0ff",
"................",
"................",
"................",
"................",
"................",
"...#............",
"..##.a#######a..",
".###############",
"a###aaaaaaa####a",
"#####aa....aa##a",
"#bbbbb.......aa.",
"................",
"................",
"................",
"................",
"................"};
