/* XPM */
static const char *editpaste[]={
"16 16 8 1",
". c None",
"# c #000000",
"d c #585858",
"b c #808000",
"c c #808080",
"f c #a0a0a0",
"a c #c3c3c3",
"e c #ffffff",
"..####aaa####...",
".#bbbaaaaabbb#..",
".#bbbcccccbbb#..",
".#bbbbbbbbbbb#..",
".#bbbb######dd..",
".#bbbb#eeeeedd..",
".#bbbb#effeed.d.",
".#bbbb#eeeeedddd",
".#bbbb#effffeee#",
".#bbbb#eeeeeeee#",
".#bbbb#effefffe#",
".#bbbb#eeeeeeee#",
".#bbbb#efffeffe#",
".d###d#efeeeeee#",
"......#aaaaaaaa#",
"......##########"};
