/* XPM */
static const char *editcopy[]={
"16 16 6 1",
"a c None",
". c #000000",
"# c #585858",
"c c #a0a0a0",
"d c #c3c3c3",
"b c #ffffff",
"......#aaaaaaaaa",
".bbbbb##aaaaaaaa",
".bccbb#a#aaaaaaa",
".bbbb......#aaaa",
".bccc.bbbbb##aaa",
".bbbb.bccbb#a#aa",
".bccb.bbbbb####a",
".bbbb.bccccbbb.a",
".bccc.bbbbbbbb.a",
".bcbb.bccbcccb.a",
".dddd.bbbbbbbb.a",
"......bcccbccb.a",
"aaaaa.bcbbbbbb.a",
"aaaaa.dddddddd.a",
"aaaaa..........a",
"aaaaaaaaaaaaaaaa"};
