/* XPM */
static const char *editcut[]={
"16 16 8 1",
". c None",
"d c #000000",
"f c #303030",
"# c #585858",
"b c #808080",
"e c #a0a0a0",
"c c #c3c3c3",
"a c #ffffff",
".........##.....",
"........#a#.....",
"........#a#.....",
".......#a#......",
".......#a#......",
".......#ab...###",
"......#a#.b##aa#",
"..cdd.cae#aaa##.",
"cddbfdbbaa###...",
"df..bdcbc#......",
"d..fd..dd.......",
"dfbd..dbfd......",
"edf..df.bd......",
"....fb..dc......",
"....df.fd.......",
"....edddc......."};
