/* XPM */
static const char *editcopy_old[]={
"16 16 6 1",
"a c None",
". c #000000",
"c c #303030",
"# c #585858",
"d c #58a8ff",
"b c #c0c0ff",
"......#aaaaaaaaa",
".bbbbb##aaaaaaaa",
".bccbb#a#aaaaaaa",
".bbbbb####aaaaaa",
".bccccbbb.aaaaaa",
".bbbbbbbb.aaaaaa",
".bccbcccb.aaaaaa",
".bbbbbbbb.aaaaaa",
".bcccbccb.aaaaaa",
".bcbbbbbb.aaaaaa",
".dddddddd.aaaaaa",
"..........aaaaaa",
"aaaaaaaaaaaaaaaa",
"aaaaaaaaaaaaaaaa",
"aaaaaaaaaaaaaaaa",
"aaaaaaaaaaaaaaaa"};
