/* XPM */
static const char *editcut[]={
"16 16 6 1",
". c None",
"c c #000000",
"d c #303030",
"a c #808080",
"# c #a0a0a0",
"b c #c3c3c3",
".........#......",
".........a#.....",
"........ba#.....",
"........a#......",
"........a#......",
".......ba#...##.",
".......a#.###aa#",
"..bcc.ba##aaa#..",
"bccadc#aaa#.....",
"cd..acaa#b......",
"c..dc..cc.......",
"cdac..cadc......",
"#cd..cd.ac......",
"....da..cb......",
"....cd.dc.......",
"....#cccb......."};
