/* XPM */
static const char *fileopen[]={
"16 16 26 1",
". c None",
"# c #000000",
"w c #020202",
"c c #040404",
"g c #151515",
"e c #161704",
"f c #161716",
"o c #303030",
"a c #363636",
"q c #404000",
"x c #585858",
"b c #676767",
"u c #6a6a2f",
"p c #808000",
"v c #808102",
"s c #808203",
"r c #808304",
"t c #989898",
"d c #cbcbcb",
"h c #f3f704",
"k c #f3f729",
"n c #f3f797",
"j c #f3f7ce",
"i c #f3f7f3",
"l c #ffff00",
"m c #ffffc0",
"..........###..a",
".........#...#bc",
"..............cc",
"defe#........ggg",
"chih.cccccc#....",
"cjkjlmlmlml#....",
"clnlmlnlnlm#....",
"cmo###########..",
"cl#pppppppppq#..",
"cm#ppprrrrrr#...",
"copppprrrrrr#...",
"coppssrrrrr#t...",
"cupvrrrrrrrw....",
"###########x....",
"................",
"................"};
