/* XPM */
static const char *filenew[]={
"16 16 5 1",
". c None",
"# c #000000",
"c c #303030",
"a c #c3c3c3",
"b c #ffffff",
"................",
"..#######.......",
"..#abbbbcc......",
"..#abbbbcac.....",
"..#abbbbcaac....",
"..#abbbbcccc#...",
"..#abbbbbbbb#...",
"..#abbbbbbbb#...",
"..#abbbbbbbb#...",
"..#abbbbbbbb#...",
"..#abbbbbbbb#...",
"..#abbbbbbbb#...",
"..#abbbbbbbb#...",
"..#aaaaaaaaa#...",
"..###########...",
"................"};
