/* XPM */
static const char *fileprintoff[]={
"16 14 5 1",
". c None",
"b c #838383",
"# c #a0a0a0",
"c c #aaaaaa",
"a c #c5c5c5",
".....#########..",
"....#........#..",
"....#.#####.#...",
"...#........#...",
"...#.#####.####.",
"..#........#a#a#",
".##########a#a##",
"#aaaaaaaaaa#a#a#",
"#############aa#",
"#aaaaaabbbaa#a#.",
"#aaaaaacccaa###.",
"#############a#.",
".#aaaaaaaaa#a#..",
"..###########..."};
