/* XPM */
static const char * greenlight_xpm[] = {
"20 20 227 2",
"  	c None",
". 	c #B4C3A9",
"+ 	c #91AE7E",
"@ 	c #7D9E66",
"# 	c #7A9C64",
"$ 	c #88A376",
"% 	c #A9B99E",
"& 	c #97B285",
"* 	c #4F8629",
"= 	c #3D7A15",
"- 	c #3B7614",
"; 	c #397113",
"> 	c #366D12",
", 	c #356912",
"' 	c #326511",
") 	c #39661A",
"! 	c #7E966D",
"~ 	c #CBD1C6",
"{ 	c #60913E",
"] 	c #3E7C15",
"^ 	c #3D7914",
"/ 	c #3D7F13",
"( 	c #3F9E0F",
"_ 	c #3FAF0C",
": 	c #3CAB0A",
"< 	c #37900C",
"[ 	c #31670F",
"} 	c #2E5B10",
"| 	c #2B560F",
"1 	c #3E6125",
"2 	c #B6BEB0",
"3 	c #CCD2C8",
"4 	c #548A2E",
"5 	c #3E8413",
"6 	c #48CA10",
"7 	c #4EFB10",
"8 	c #4EFE10",
"9 	c #4BFE0B",
"0 	c #45FE04",
"a 	c #40FA00",
"b 	c #3EEB00",
"c 	c #36A906",
"d 	c #2A590D",
"e 	c #264D0D",
"f 	c #2D4F15",
"g 	c #B3BBAD",
"h 	c #649243",
"i 	c #3D7B15",
"j 	c #3E9211",
"k 	c #4BF10D",
"l 	c #52FE15",
"m 	c #57FE1C",
"n 	c #56FE1C",
"o 	c #51FE15",
"p 	c #4AFE0B",
"q 	c #43FE02",
"r 	c #3FF400",
"s 	c #3CE900",
"t 	c #38CB02",
"u 	c #275D0A",
"v 	c #21430B",
"w 	c #324E1F",
"x 	c #9EB68E",
"y 	c #3D8412",
"z 	c #46F206",
"A 	c #5FFE28",
"B 	c #5FFE27",
"C 	c #56FE1B",
"D 	c #4DFE0F",
"E 	c #44FE04",
"F 	c #40F700",
"G 	c #3CEB00",
"H 	c #39E000",
"I 	c #35C102",
"J 	c #204609",
"K 	c #1D3A09",
"L 	c #6A7A5F",
"M 	c #558632",
"N 	c #3A7414",
"O 	c #3FCC06",
"P 	c #5EFE26",
"Q 	c #44FE03",
"R 	c #39DF00",
"S 	c #36D300",
"T 	c #2B8C04",
"U 	c #193408",
"V 	c #1D340E",
"W 	c #BFC9B8",
"X 	c #397313",
"Y 	c #397E10",
"Z 	c #51FE14",
"` 	c #4AFE0A",
" .	c #42FE01",
"..	c #39DD00",
"+.	c #36D200",
"@.	c #33C100",
"#.	c #193707",
"$.	c #152A07",
"%.	c #91988B",
"&.	c #9CB18D",
"*.	c #376D12",
"=.	c #399D0B",
"-.	c #3EF000",
";.	c #40F900",
">.	c #3EEF00",
",.	c #3BE500",
"'.	c #38DA00",
").	c #35CF00",
"!.	c #32C300",
"~.	c #1E5605",
"{.	c #122406",
"].	c #646E5D",
"^.	c #89A378",
"/.	c #346811",
"(.	c #38A908",
"_.	c #3CEA00",
":.	c #3EF200",
"<.	c #36D500",
"[.	c #34CA00",
"}.	c #31BF00",
"|.	c #206503",
"1.	c #0F1F05",
"2.	c #4D5746",
"3.	c #88A178",
"4.	c #316210",
"5.	c #36A407",
"6.	c #3AE100",
"7.	c #37D800",
"8.	c #35CE00",
"9.	c #32C400",
"0.	c #30BA00",
"a.	c #1E6203",
"b.	c #0C1A04",
"c.	c #4B5345",
"d.	c #99AB8C",
"e.	c #2F5D10",
"f.	c #328D09",
"g.	c #38D900",
"h.	c #35D000",
"i.	c #33C700",
"j.	c #31BE00",
"k.	c #2EB400",
"l.	c #184A02",
"m.	c #0A1303",
"n.	c #60655B",
"o.	c #BDC4B7",
"p.	c #2C570F",
"q.	c #2D660C",
"r.	c #37D500",
"s.	c #2FB600",
"t.	c #2CAA00",
"u.	c #0D1F02",
"v.	c #070F02",
"w.	c #8C8F89",
"x.	c #44662D",
"y.	c #274E0D",
"z.	c #31A403",
"A.	c #2DAE00",
"B.	c #1F7001",
"C.	c #060E02",
"D.	c #0B1007",
"E.	c #95A48B",
"F.	c #24480C",
"G.	c #25560A",
"H.	c #31BA01",
"I.	c #33C600",
"J.	c #33C800",
"K.	c #2CAD00",
"L.	c #289900",
"M.	c #0A1B01",
"N.	c #040800",
"O.	c #5C5E5A",
"P.	c #4D663B",
"Q.	c #1F3E0A",
"R.	c #225D07",
"S.	c #2FB200",
"T.	c #30BB00",
"U.	c #2FB800",
"V.	c #2DAF00",
"W.	c #2BA900",
"X.	c #289800",
"Y.	c #0D2B01",
"Z.	c #030700",
"`.	c #171816",
" +	c #C9CCC7",
".+	c #354E23",
"++	c #1A3408",
"@+	c #1C4407",
"#+	c #288C02",
"$+	c #2DB000",
"%+	c #2CAB00",
"&+	c #2BA800",
"*+	c #2AA300",
"=+	c #1F7201",
"-+	c #091B01",
";+	c #020500",
">+	c #0A0B09",
",+	c #ACADAB",
"'+	c #C7CAC5",
")+	c #415434",
"!+	c #152B07",
"~+	c #132606",
"{+	c #163705",
"]+	c #1C5803",
"^+	c #1E6702",
"/+	c #1D6301",
"(+	c #174C01",
"_+	c #0C2101",
":+	c #040901",
"<+	c #010400",
"[+	c #191A18",
"}+	c #AEAFAD",
"|+	c #858D7E",
"1+	c #26341B",
"2+	c #0E1D04",
"3+	c #0C1804",
"4+	c #0A1403",
"5+	c #071002",
"6+	c #050C01",
"7+	c #0D0F0B",
"8+	c #656664",
"9+	c #A8ACA5",
"0+	c #797F75",
"a+	c #5E645B",
"b+	c #5C6159",
"c+	c #6F716C",
"d+	c #9A9B99",
"              . + @ # $ %               ",
"          & * = - ; > , ' ) !           ",
"      ~ { ] ^ / ( _ : < [ } | 1 2       ",
"    3 4 ] 5 6 7 8 9 0 a b c d e f g     ",
"    h i j k l m n o p q r s t u v w     ",
"  x = y z 8 m A B C D E F G H I J K L   ",
"  M N O 0 8 n B P C D Q F G R S T U V   ",
"W X Y r q 9 o C C Z `  .r s ..+.@.#.$.%.",
"&.*.=.-.a 0 p D D ` Q ;.>.,.'.).!.~.{.].",
"^./.(._.:.a q E Q  .;.:.s R <.[.}.|.1.2.",
"3.4.5.6._.-.r F F r >.s 6.7.8.9.0.a.b.c.",
"d.e.f.g.H ,.s G G s ,.R 7.h.i.j.k.l.m.n.",
"o.p.q.).r.'...H R ..'.<.8.i.}.s.t.u.v.w.",
"  x.y.z.[.).+.S S +.).[.9.j.s.A.B.C.D.  ",
"  E.F.G.H.!.I.J.J.I.!.}.0.k.K.L.M.N.O.  ",
"    P.Q.R.S.0.T.T.0.U.k.V.W.X.Y.Z.`.    ",
"     +.+++@+#+$+$+A.%+&+*+=+-+;+>+,+    ",
"      '+)+!+~+{+]+^+/+(+_+:+<+[+}+      ",
"          |+1+2+3+4+5+6+Z.7+8+          ",
"              9+0+a+b+c+d+              "};
