/* XPM */
static const char * greylight_xpm[] = {
"20 20 193 2",
"  	c None",
". 	c #D0CECE",
"+ 	c #BDB8B8",
"@ 	c #B2ABAB",
"# 	c #B0AAAA",
"$ 	c #B7B2B2",
"% 	c #CAC7C7",
"& 	c #C1BCBC",
"* 	c #998E8E",
"= 	c #877A7A",
"- 	c #857878",
"; 	c #837676",
"> 	c #817474",
", 	c #7F7272",
"' 	c #7D7070",
") 	c #877C7C",
"! 	c #B1ABAB",
"~ 	c #DADADA",
"{ 	c #D7D6D6",
"] 	c #A29999",
"^ 	c #887B7B",
"/ 	c #867979",
"( 	c #8E8080",
"_ 	c #918383",
": 	c #8F8181",
"< 	c #877979",
"[ 	c #7C6E6E",
"} 	c #796C6C",
"| 	c #776A6A",
"1 	c #CDCBCB",
"2 	c #998D8D",
"3 	c #897C7C",
"4 	c #9C8F8F",
"5 	c #AC9F9F",
"6 	c #AEA1A1",
"7 	c #ADA0A0",
"8 	c #AB9C9C",
"9 	c #A89999",
"0 	c #A29292",
"a 	c #8D7E7E",
"b 	c #766969",
"c 	c #716666",
"d 	c #786E6E",
"e 	c #CAC8C8",
"f 	c #A29898",
"g 	c #8C7F7F",
"h 	c #A89B9B",
"i 	c #B0A3A3",
"j 	c #B3A6A6",
"k 	c #AA9B9B",
"l 	c #A69797",
"m 	c #A39292",
"n 	c #978787",
"o 	c #746868",
"p 	c #6D6262",
"q 	c #7B7171",
"r 	c #C0BCBC",
"s 	c #897B7B",
"t 	c #A79999",
"u 	c #AFA2A2",
"v 	c #B7AAAA",
"w 	c #AB9D9D",
"x 	c #A79898",
"y 	c #A49393",
"z 	c #A08F8F",
"A 	c #948484",
"B 	c #6C6161",
"C 	c #685D5D",
"D 	c #9E9898",
"E 	c #978C8C",
"F 	c #847777",
"G 	c #9B8D8D",
"H 	c #9B8A8A",
"I 	c #837373",
"J 	c #655A5A",
"K 	c #6A5F5F",
"L 	c #D6D5D5",
"M 	c #CFCDCD",
"N 	c #A79797",
"O 	c #B1A4A4",
"P 	c #AA9C9C",
"Q 	c #9F8E8E",
"R 	c #9B8989",
"S 	c #968383",
"T 	c #665A5A",
"U 	c #615656",
"V 	c #B1ADAD",
"W 	c #BBB6B6",
"X 	c #A69696",
"Y 	c #A99A9A",
"Z 	c #A59595",
"` 	c #A29191",
" .	c #9E8D8D",
"..	c #9A8888",
"+.	c #978484",
"@.	c #706363",
"#.	c #5E5454",
"$.	c #938E8E",
"%.	c #AFA9A9",
"&.	c #928282",
"*.	c #9C8B8B",
"=.	c #998686",
"-.	c #766767",
";.	c #5B5151",
">.	c #837C7C",
",.	c #ADA7A7",
"'.	c #7C6F6F",
").	c #8F8080",
"!.	c #A19090",
"~.	c #A59696",
"{.	c #9D8C8C",
"].	c #948181",
"^.	c #756666",
"/.	c #584F4F",
"(.	c #7F7979",
"_.	c #B5AFAF",
":.	c #7A6D6D",
"<.	c #897A7A",
"[.	c #A49494",
"}.	c #988585",
"|.	c #958282",
"1.	c #917E7E",
"2.	c #6C5F5F",
"3.	c #564D4D",
"4.	c #8A8585",
"5.	c #C8C5C5",
"6.	c #7D6F6F",
"7.	c #927F7F",
"8.	c #8F7B7B",
"9.	c #5C5151",
"0.	c #534A4A",
"a.	c #A5A1A1",
"b.	c #817676",
"c.	c #726666",
"d.	c #907F7F",
"e.	c #998787",
"f.	c #9C8A8A",
"g.	c #9B8888",
"h.	c #938080",
"i.	c #907C7C",
"j.	c #7D6B6B",
"k.	c #524949",
"l.	c #ADA8A8",
"m.	c #6F6464",
"n.	c #8B7676",
"o.	c #5B5050",
"p.	c #504747",
"q.	c #DAD9D9",
"r.	c #817878",
"s.	c #786A6A",
"t.	c #907D7D",
"u.	c #8E7A7A",
"v.	c #8A7676",
"w.	c #625656",
"x.	c #4F4646",
"y.	c #584E4E",
"z.	c #CCCACA",
"A.	c #716767",
"B.	c #665B5B",
"C.	c #6F6262",
"D.	c #897777",
"E.	c #8D7878",
"F.	c #806D6D",
"G.	c #5C5050",
"H.	c #4F4545",
"I.	c #514646",
"J.	c #B4B1B1",
"K.	c #C9C7C7",
"L.	c #746B6B",
"M.	c #5F5555",
"N.	c #6B5D5D",
"O.	c #766666",
"P.	c #7C6A6A",
"Q.	c #7A6969",
"R.	c #716262",
"S.	c #605454",
"T.	c #4E4545",
"U.	c #564E4E",
"V.	c #B4B2B2",
"W.	c #999494",
"X.	c #635959",
"Y.	c #5A5050",
"Z.	c #544B4B",
"`.	c #817A7A",
" +	c #CCCCCC",
".+	c #D5D5D5",
"++	c #AEABAB",
"@+	c #8F8A8A",
"#+	c #7F7878",
"$+	c #7C7575",
"%+	c #888181",
"&+	c #A39F9F",
"*+	c #CECDCD",
"              . + @ # $ %               ",
"          & * = - ; > , ' ) ! ~         ",
"      { ] ^ = / ( _ : < [ } | ) 1       ",
"    { 2 ^ 3 4 5 6 7 8 9 0 a b c d e     ",
"    f ^ g h i j j i 7 k l m n o p q {   ",
"  r = s t u j v v j 6 w x y z A B C D   ",
"  E F G w u j v v j 6 w x y z H I J K L ",
"M F / N 8 7 O j j i 7 P l m Q R S T U V ",
"W > ( X Y w 7 u u 7 w 9 Z `  ...+.@.#.$.",
"%., &.y l Y 8 w w 8 Y X m z *.=.S -.;.>.",
",.'.).!.y X x 9 9 x ~.m z {...+.].^./.(.",
"_.:.<.{.z ` y [.y y ` z {.R }.|.1.2.3.4.",
"5.| 6.R *. .Q z z Q  .*...}.S 7.8.9.0.a.",
"  b.c.d.e.R H f.f.H g.=.}.|.h.i.j.k.0.M ",
"  l.m.b |.+.}.=.=.}.+.S ].7.8.n.o.p.>.  ",
"  q.r.K s.h.].].].].h.7.t.u.v.w.x.y.1   ",
"    z.A.B.C.D.t.t.i.8.u.E.F.G.H.I.J.    ",
"      K.L.U M.N.O.P.Q.R.S.p.T.U.V.      ",
"        { W.X.Y./.3.Z.k.p.I.`. +        ",
"            .+++@+#+$+%+&+*+            "};
