/* XPM */
static const char *machinesim[]={
"17 17 6 1",
". c None",
"a c #000000",
"d c #585858",
"c c #808080",
"b c #c3c3c3",
"# c #ff0000",
".........########",
".........#.aaaa.#",
".........#aa..aa#",
".......bb#a.c..a#",
".ab....ddda.cc.a#",
".ab...ddd#aa..aa#",
".ab..d...#.aaaa.#",
".ab.d....########",
"....d......d.....",
"...d......d......",
"...d.....d..ab...",
".aaaa..dd..abab..",
"aa..aaddd..abab..",
"a..c.abb....ab...",
"a.cc.a...........",
"aa..aa...........",
".aaaa............"};
