/* XPM */
static const char *machinesimulate_old[]={
"16 16 5 1",
". c None",
"# c #000000",
"c c #585858",
"b c #808080",
"a c #c3c3c3",
"...........####.",
"..........##..##",
".......aa.#.b..#",
"#a.#a..ccc#.bb.#",
"#a#a#.ccc.##..##",
"#a.#ac.....####.",
"....c......c....",
"....c......c....",
"...c......c.....",
"...c.....c.#a.#a",
".####..cc.#a#.#a",
"##..##ccc..#a.#a",
"#..b.#aa........",
"#.bb.#..........",
"##..##..........",
".####..........."};
