/* XPM */
static const char *machinesimoff[]={
"17 17 4 1",
". c None",
"a c #808080",
"# c #a0a0a0",
"b c #c3c3c3",
".........########",
".........#.aaaa.#",
".........#aa..aa#",
".......bb#a.a..a#",
".ab....###a.aa.a#",
".ab...a###aa..aa#",
".ab..a...#.aaaa.#",
".ab.a....########",
"....a......a.....",
"...#......a......",
"...#.....a..ab...",
".aaaa..##..abab..",
"aa..aa###..abab..",
"a..a.abb....ab...",
"a.aa.a...........",
"aa..aa...........",
".aaaa............"};
