/* XPM */
static const char *qfsm_64_xpm[] = {
/* columns rows colors chars-per-pixel */
"64 64 119 2",
"   c #000000",
".  c #070408",
"X  c #0A060A",
"o  c #0C0A0D",
"O  c #0E0910",
"+  c #130C14",
"@  c #170E19",
"#  c #131314",
"$  c #171018",
"%  c #1B121D",
"&  c #1C1B1C",
"*  c #1F1421",
"=  c #1F1C20",
"-  c #2F0D2B",
";  c #221625",
":  c #281726",
">  c #241C25",
",  c #281A26",
"<  c #2D1029",
"1  c #261829",
"2  c #2A1B2D",
"3  c #30122C",
"4  c #30192D",
"5  c #2E1E32",
"6  c #361532",
"7  c #3B1036",
"8  c #331E33",
"9  c #3F1339",
"0  c #3B1C38",
"q  c #232223",
"w  c #2A242B",
"e  c #2C2A2C",
"r  c #322135",
"t  c #382036",
"y  c #332C34",
"u  c #342239",
"i  c #39253D",
"p  c #37283B",
"a  c #38283C",
"s  c #333333",
"d  c #3A3239",
"f  c #3A3A3A",
"g  c #42123C",
"h  c #3C2741",
"j  c #3E2943",
"k  c #3F3241",
"l  c #4A1443",
"z  c #491A42",
"x  c #52184A",
"c  c #5D1A54",
"v  c #402A46",
"b  c #442D4A",
"n  c #47314C",
"m  c #48314F",
"M  c #542A54",
"N  c #4C3452",
"B  c #503755",
"V  c #513856",
"C  c #553A5B",
"Z  c #66225D",
"A  c #6D1D63",
"S  c #701E66",
"D  c #5D3D62",
"F  c #6F2265",
"G  c #742069",
"H  c #6C3B6E",
"J  c #7D2271",
"K  c #454545",
"L  c #494448",
"P  c #4C4C4C",
"I  c #554953",
"U  c #545454",
"Y  c #5D5D5D",
"T  c #5F4065",
"R  c #604065",
"E  c #634169",
"W  c #69446F",
"Q  c #6D4572",
"!  c #744779",
"~  c #636363",
"^  c #6C6C6C",
"/  c #727272",
"(  c #7D7C7D",
")  c #822377",
"_  c #8B267E",
"`  c #862B7A",
"'  c #8E2781",
"]  c #902782",
"[  c #9C2B8D",
"{  c #9F2C91",
"}  c #A42D95",
"|  c #A92E99",
" . c #AF309E",
".. c #A43E9A",
"X. c #B532A4",
"o. c #B03AA2",
"O. c #BD34AC",
"+. c #B73FAB",
"@. c #BA3EAD",
"#. c #C136AF",
"$. c #C636B4",
"%. c #C934B6",
"&. c #C13AB1",
"*. c #834A86",
"=. c #8C4A8D",
"-. c #974996",
";. c #994997",
":. c #AD44A5",
">. c #B043A7",
",. c #B441A9",
"<. c #848484",
"1. c #8A8A8A",
"2. c #939393",
"3. c #9A9A9A",
"4. c #A5A5A5",
"5. c #ACACAC",
"6. c #B6B6B6",
"7. c #BABABA",
"8. c None",
/* pixels */
"8.8.8.8.8.8.8.8.8.8.8.8.8.8.8.8.8.8.8.8.8.8.8.8.8.8.8.8.8.8.8.8.8.8.8.8.8.8.8.8.8.8.8.8.8.8.8.8.8.8.8.8.8.8.8.8.8.8.8.8.8.8.8.8.",
"8.8.8.8.8.8.8.8.8.8.8.8.8.8.8.8.8.8.8.8.8.8.8.8.8.8.8.8.8.8.8.8.8.8.8.8.8.8.8.8.8.8.8.8.8.8.8.8.8.8.8.8.8.8.8.8.8.8.8.8.8.8.8.8.",
"8.8.8.8.8.8.8.8.8.8.8.8.8.8.8.8.8.8.8.8.8.8.8.8.8.8.8.8.8.8.8.8.8.8.8.8.8.8.8.8.8.8.8.8.8.8.8.8.8.8.8.8.8.8.8.8.8.8.8.8.8.8.8.8.",
"8.8.8.8.8.8.8.8.8.8.8.8.8.8.8.8.8.8.8.8.8.8.8.8.8.8.8.8.8.8.8.8.8.8.8.8.8.8.8.8.8.8.8.8.8.8.8.8.8.8.8.8.8.8.8.8.8.8.8.8.8.8.8.8.",
"8.8.8.8.8.8.8.8.8.8.8.8.8.8.8.8.8.8.8.8.8.8.8.8.8.8.8.8.8.8.8.8.8.8.8.8.8.8.8.8.8.8.8.8.8.8.8.8.8.8.8.8.8.8.8.8.8.8.8.8.8.8.8.8.",
"8.8.8.8.8.8.8.8.8.8.8.8.8.8.8.8.8.8.8.8.8.8.8.8.8.8.8.8.8.8.8.8.8.8.8.8.8.8.8.8.8.8.8.8.8.8.8.8.8.8.8.8.8.8.8.8.8.8.8.8.8.8.8.8.",
"8.8.8.8.8.8.8.8.8.8.8.8.8.8.8.8.8.8.8.8.8.8.8.8.8.8.8.8.8.8.8.8.8.8.8.8.8.8.8.8.8.8.8.8.8.8.8.8.8.8.8.8.8.8.8.8.8.8.8.8.8.8.8.8.",
"8.8.8.8.8.8.8.8.8.8.8.8.8.8.8.8.8.8.8.8.8.8.8.8.8.8.8.8.8.8.8.8.8.8.8.8.8.8.8.8.8.8.8.8.8.8.8.8.8.8.8.8.8.8.8.8.8.8.8.8.8.8.8.8.",
"8.8.8.8.8.8.8.8.8.8.8.8.8.8.8.8.8.8.8.8.8.8.8.8.8.8.8.8.8.8.8.8.8.8.8.8.8.8.8.8.8.8.8.8.8.8.8.8.8.8.8.8.8.8.8.8.8.8.8.8.8.8.8.8.",
"8.8.8.8.8.8.8.8.8.8.5.1.<.<.3.7.8.8.8.8.8.8.8.8.8.8.8.8.8.8.8.8.8.8.8.8.8.8.8.8.8.8.8.8.8.8.8.8.8.8.8.8.8.8.8.8.8.8.8.8.8.8.8.8.",
"8.8.8.8.8.8.8.8.Y : c F ` _ A g d 1.8.8.8.8.8.8.8.8.8.8.8.8.8.8.8.8.8.8.8.8.8.8.8.8.8.8.8.8.8.8.8.8.8.8.8.8.8.8.8.8.8.8.8.8.8.8.",
"8.8.8.8.8.8.2.8 _ &.%.%.%.$.%.$.X.c K 8.8.8.8.8.8.8.8.8.8.8.8.8.8.8.8.8.8.8.8.8.8.8.8.8.8.8.8.8.8.8.8.8.8.8.8.8.8.8.8.8.8.8.8.8.",
"8.8.8.8.8.( c O.%.%.%.%.%.%.%.%.%.$.[ 0 5.8.8.8.8.8.8.8.8.8.8.8.8.8.8.8.8.8.8.8.8.8.8.8.8.8.8.8.8.8.8.8.8.8.8.8.8.8.8.8.8.8.8.8.",
"8.8.8.8./ F $.$.%.%.%.%.%.%.%.%.%.%.$.X.0 6.8.8.8.8.8.8.8.8.8.8.8.8.8.8.8.8.8.8.8.8.8.8.8.8.8.8.8.8.8.8.8.8.8.8.8.8.8.8.8.8.8.8.",
"8.8.8.3.l $.%.%.%.%.%.$.$.$.%.%.%.%.%.%.X.s 8.8.8.8.8.8.8.8.8.8.8.8.8.8.8.8.8.8.8.8.8.8.8.8.8.8.8.8.8.8.8.8.8.8.8.8.8.8.8.8.8.8.",
"8.8.8.r O.%.%.%.%.$.' l < 9 F O.$.%.%.%.$.J ^ 8.8.8.8.8.8.8.8.8.8.8.8.8.8.8.8.8.8.8.8.8.8.8.8.8.8.8.8.8.8.8.8.8.8.8.8.8.8.8.8.8.",
"8.8.~ ' $.%.%.%.O.l ~ 5.8.6.<.r { $.%.%.%.$.6 7.8.8.8.8.8.8.8.8.8.8.8.8.8.8.8.8.8.8.8.8.8.8.8.8.8.8.8.8.8.8.8.8.8.8.8.8.8.8.8.8.",
"8.8.< &.%.%.%.$.z 3.8.8.8.8.8.8.L | %.%.%.%.] Y 8.8.8.8.8.8.8.8.8.8.8.8.8.8.8.8.8.8.8.8.8.8.8.8.8.8.8.8.8.8.8.8.8.8.8.8.8.8.8.8.",
"8.( G $.%.%.$.J / 8.8.8.8.8.8.8.7.0 $.%.%.%.$.4 8.8.8.8.8.8.8.8.8.8.8.8.8.8.8.8.8.8.8.8.8.8.8.8.8.8.8.8.8.8.8.8.8.8.8.8.8.8.8.8.",
"8.f  .%.%.%.$.w 8.8.8.8.8.8.8.8.8.~ _ %.%.%.$.c 1.8.8.8.8.8.8.8.8.8.8.8.8.8.8.8.8.8.8.8.8.8.8.8.8.8.8.8.8.8.8.8.8.8.8.8.8.8.8.8.",
"8.% $.%.%.%._ ~ 8.8.8.8.8.8.8.8.8.6.9 $.%.%.%._ Y 8.8.8.8.8.8.8.5.5.5.5.5.8.8.8.8.8.8.8.8.8.8.8.8.8.8.8.8.8.8.8.8.8.8.8.8.8.8.8.",
"6.9 $.%.%.%.c 3.8.8.8.8.8.8.8.8.8.8.w #.%.%.%.X.f 8.8.8.8.^ s - l l l l - ^ 8.8.8.8.8.8.8.8.8.8.8.8.8.8.8.8.8.8.8.8.8.8.8.8.8.8.",
"1.x $.%.%.%.7 6.8.8.8.8.8.8.8.8.8.8.f X.%.%.%.$.> 8.8.8.d ) O.$.$.$.%.$.} K 8.8.8.8.8.8.8.8.8.8.8.8.8.8.8.8.8.8.8.8.8.8.8.8.8.8.",
"<.Z $.%.%.$.3 8.8.8.8.8.8.8.8.8.8.8.U [ %.%.%.$., 8.8.I } %.%.%.%.%.%.%. .K 8.8.8.8.8.8.8.8.8.8.8.8.8.8.8.8.8.8.8.8.8.8.8.8.8.8.",
"<.F $.$.%.$.7 7.8.8.8.8.8.8.8.8.8.8.P } %.%.%.$.2 8.<.S $.%.%.%.%.%.%.%.| K 8.8.8.8.8.8.8.8.8.8.8.8.8.8.8.8.8.8.8.8.8.8.8.8.8.8.",
"2.c @.&.&.&.9 6.8.8.8.8.8.8.8.8.8.8.f X.$.%.%.$.> 8.f } %.%.%.%.$.%.$.$.| L 8.8.8.8.8.8.8.8.8.8.8.8.8.8.8.8.8.8.8.8.8.8.8.8.8.8.",
"5.0 ;.;.;.;.M <.8.8.8.8.8.8.8.8.8.8.: :.:.:.>...s 8.; ,.,.+.,.o.g q q g J K 8.8.8.8.8.8.8.8.8.8.8.8.8.8.8.8.8.8.8.8.8.8.8.8.8.8.",
"8.% ! ! ! ! D P 8.8.8.8.8.8.8.8.8.4.2 *.*.*.*.H L 8.% =.=.=.-.M ~ 8.8.4.s 1.8.8.8.8.8.8.8.8.8.8.8.8.8.8.8.8.8.8.8.8.8.8.8.8.8.8.",
"8.e T R E E E > 8.8.8.8.8.8.8.8.8.L C Q W Q W p ( 8.$ Q Q Q Q : 4.8.8.8.8.8.8.8.8.8.8.8.8.8.8.8.8.8.8.8.8.8.8.8.8.8.8.8.8.8.8.8.",
"8.~ j C C C C n P 8.8.8.8.8.8.8.3.> C D C T T % 7.8.+ T R R R + 8.8.8.2.~ s s s s s s s s <.8.8.8.8.8.7.7.6.8.8.8.8.8.8.8.8.8.8.",
"8.5.% N N N N N 5 ^ 8.8.8.8.8.3.% N B B V B n K 8.8.# V C V C O 8.( e 2 a V V V N V V V V k 8.1.K w % % % % & K 3.8.8.8.8.8.8.8.",
"8.8.L u j j j j j 2 e / 1.<.K % j b b b b n * 2.8.8.+ n n m m o > u m m N m N m N N N N N u y a N N N N N N N n ; P 8.8.8.8.8.8.",
"8.8.4.@ 5 5 5 5 5 5 5 % $ $ 1 u r u u u u 5 e 8.8.8.O h i i i o p h h h h h h h j j j j j b j b j j b b b b b b b u & 3.8.8.8.8.",
"8.8.8.^ + % * * * * * * ; * ; ; ; ; 1 1 1 ; o 2.8.8.X 1 2 2 1 @ 2 2 5 2 5 5 5 p a r r 5 5 r 8 5 u u r u u u u u u u u @ 3.8.8.8.",
"8.8.8.8.f O + + + + O @ @ + @ + @ + + + + % + o ~ 8.. @ @ % % e * % % * $ > 7.8.8.L * * * * * % * * * 1 ; 1 ; 1 1 1 1 1 e 8.8.8.",
"8.8.8.8.8.s   . . . .   . . . . . X . . X X X X . & . X X O o / @ o O O X . K 5.8.P + O + + O ^ <.= + + + + X # o @ @ @ + 7.8.8.",
"8.8.8.8.8.8.L                                                 <.3.#     .     o 1.P . .     P 8.8.(   X . . ( 8.Y . X X X 3.8.8.",
"8.8.8.8.8.8.8.1.&                 f <.q                       <.8.8.K           # L         ~ 8.8.(         2.8.4.        3.8.8.",
"8.8.8.8.8.8.8.8.8.2.U q X & f ^ 5.8.8.8.L                     ^ 8.8.8.(                     Y 8.8.<.        2.8.6.        3.8.8.",
"8.8.8.8.8.8.8.8.8.8.8.8.8.8.8.8.8.8.8.8.8./ .                 . s Y Y U                     ~ 8.8.(         1.8.6.        3.8.8.",
"8.8.8.8.8.8.8.8.8.8.8.8.8.8.8.8.8.8.8.8.8.8.3.#                                             U 8.8.(         2.8.6.        3.8.8.",
"8.8.8.8.8.8.8.8.8.8.8.8.8.8.8.8.8.8.8.8.8.8.8.7.s                                           q 8.8.~         ( 8.6.        3.8.8.",
"8.8.8.8.8.8.8.8.8.8.8.8.8.8.8.8.8.8.8.8.8.8.8.8.8.U                                         X 8.8.e         U 8.6.        3.8.8.",
"8.8.8.8.8.8.8.8.8.8.8.8.8.8.8.8.8.8.8.8.8.8.8.8.8.8.~         # ( 1.1.1.1.1.1.1.1.1.1.1.1.1.4.8.8.6.<.1.1.1.8.8.6.        3.8.8.",
"8.8.8.8.8.8.8.8.8.8.8.8.8.8.8.8.8.8.8.8.8.8.8.8.8.8.1.        q 8.8.8.8.8.8.8.8.8.8.8.8.8.8.8.8.8.8.8.8.8.8.8.8.6.        3.8.8.",
"8.8.8.8.8.8.8.8.8.8.8.8.8.8.8.8.8.8.8.8.8.8.8.8.8.8.1.          8.8.8.8.8.8.8.8.8.8.8.8.8.8.8.8.8.8.8.8.8.8.8.8.6.        3.8.8.",
"8.8.8.8.8.8.8.8.8.8.8.8.8.8.8.8.8.8.8.8.8.8.8.8.8.8.1.          3.8.8.8.8.8.8.8.8.8.8.8.8.8.8.8.8.8.8.8.8.8.8.8.6.        3.8.8.",
"8.8.8.8.8.8.8.8.8.8.8.8.8.8.8.8.8.8.8.8.8.8.8.8.8.8.(           / 8.8.8.8.8.8.8.8.8.8.8.8.8.8.8.8.8.8.8.8.8.8.8.6.        3.8.8.",
"8.8.8.8.8.8.8.8.8.8.8.8.8.8.8.8.8.8.8.8.8.8.8.8.8.8.=           q 8.8.8.8.8.8.8.8.8.8.8.8.8.8.8.8.8.8.8.8.8.8.8.6.        3.8.8.",
"8.8.8.8.8.8.8.8.8.8.8.8.8.8.8.8.8.8.8.8.8.8.8.8.8.f               3.8.8.8.8.8.8.8.8.8.8.8.8.8.8.8.8.8.8.8.8.8.5.3.        ( 5.8.",
"8.8.8.8.8.8.8.8.8.8.8.8.8.8.8.8.8.8.8.8.8.8.8.8.8.q             o 1.8.8.8.8.8.8.8.8.8.8.8.8.8.8.8.8.8.8.8.8.U                 ^ ",
"8.8.8.8.8.8.8.8.8.8.8.8.8.8.8.8.8.8.8.8.8.8.8.8.8.8.6.6.7.6.6.6.8.8.8.8.8.8.8.8.8.8.8.8.8.8.8.8.8.8.8.8.8.8.7.s             U 8.",
"8.8.8.8.8.8.8.8.8.8.8.8.8.8.8.8.8.8.8.8.8.8.8.8.8.8.8.8.8.8.8.8.8.8.8.8.8.8.8.8.8.8.8.8.8.8.8.8.8.8.8.8.8.8.8.8.P         ~ 8.8.",
"8.8.8.8.8.8.8.8.8.8.8.8.8.8.8.8.8.8.8.8.8.8.8.8.8.8.8.8.8.8.8.8.8.8.8.8.8.8.8.8.8.8.8.8.8.8.8.8.8.8.8.8.8.8.8.8.8.^   . ( 8.8.8.",
"8.8.8.8.8.8.8.8.8.8.8.8.8.8.8.8.8.8.8.8.8.8.8.8.8.8.8.8.8.8.8.8.8.8.8.8.8.8.8.8.8.8.8.8.8.8.8.8.8.8.8.8.8.8.8.8.8.8.3.4.8.8.8.8.",
"8.8.8.8.8.8.8.8.8.8.8.8.8.8.8.8.8.8.8.8.8.8.8.8.8.8.8.8.8.8.8.8.8.8.8.8.8.8.8.8.8.8.8.8.8.8.8.8.8.8.8.8.8.8.8.8.8.8.8.8.8.8.8.8.",
"8.8.8.8.8.8.8.8.8.8.8.8.8.8.8.8.8.8.8.8.8.8.8.8.8.8.8.8.8.8.8.8.8.8.8.8.8.8.8.8.8.8.8.8.8.8.8.8.8.8.8.8.8.8.8.8.8.8.8.8.8.8.8.8.",
"8.8.8.8.8.8.8.8.8.8.8.8.8.8.8.8.8.8.8.8.8.8.8.8.8.8.8.8.8.8.8.8.8.8.8.8.8.8.8.8.8.8.8.8.8.8.8.8.8.8.8.8.8.8.8.8.8.8.8.8.8.8.8.8.",
"8.8.8.8.8.8.8.8.8.8.8.8.8.8.8.8.8.8.8.8.8.8.8.8.8.8.8.8.8.8.8.8.8.8.8.8.8.8.8.8.8.8.8.8.8.8.8.8.8.8.8.8.8.8.8.8.8.8.8.8.8.8.8.8.",
"8.8.8.8.8.8.8.8.8.8.8.8.8.8.8.8.8.8.8.8.8.8.8.8.8.8.8.8.8.8.8.8.8.8.8.8.8.8.8.8.8.8.8.8.8.8.8.8.8.8.8.8.8.8.8.8.8.8.8.8.8.8.8.8.",
"8.8.8.8.8.8.8.8.8.8.8.8.8.8.8.8.8.8.8.8.8.8.8.8.8.8.8.8.8.8.8.8.8.8.8.8.8.8.8.8.8.8.8.8.8.8.8.8.8.8.8.8.8.8.8.8.8.8.8.8.8.8.8.8.",
"8.8.8.8.8.8.8.8.8.8.8.8.8.8.8.8.8.8.8.8.8.8.8.8.8.8.8.8.8.8.8.8.8.8.8.8.8.8.8.8.8.8.8.8.8.8.8.8.8.8.8.8.8.8.8.8.8.8.8.8.8.8.8.8.",
"8.8.8.8.8.8.8.8.8.8.8.8.8.8.8.8.8.8.8.8.8.8.8.8.8.8.8.8.8.8.8.8.8.8.8.8.8.8.8.8.8.8.8.8.8.8.8.8.8.8.8.8.8.8.8.8.8.8.8.8.8.8.8.8.",
"8.8.8.8.8.8.8.8.8.8.8.8.8.8.8.8.8.8.8.8.8.8.8.8.8.8.8.8.8.8.8.8.8.8.8.8.8.8.8.8.8.8.8.8.8.8.8.8.8.8.8.8.8.8.8.8.8.8.8.8.8.8.8.8."
};
