/* XPM */
static const char * redlight_xpm[] = {
"20 20 250 2",
"  	c None",
". 	c #DAD5D5",
"+ 	c #C6A2A2",
"@ 	c #BB8E8E",
"# 	c #B98E8E",
"$ 	c #C2A1A1",
"% 	c #D5CBCB",
"& 	c #C8A3A3",
"* 	c #A34949",
"= 	c #8A1919",
"- 	c #851717",
"; 	c #801616",
"> 	c #7C1515",
", 	c #771515",
"' 	c #731515",
") 	c #8B4545",
"! 	c #BCA1A1",
"~ 	c #AA5656",
"{ 	c #8D1818",
"] 	c #891818",
"^ 	c #961313",
"/ 	c #A11010",
"( 	c #9A0F0F",
"_ 	c #801111",
": 	c #6C1313",
"< 	c #671212",
"[ 	c #631111",
"} 	c #885151",
"| 	c #D5D0D0",
"1 	c #9E3B3B",
"2 	c #8C1818",
"3 	c #8D1717",
"4 	c #C31212",
"5 	c #F41010",
"6 	c #FF0E0E",
"7 	c #FF0A0A",
"8 	c #FF0303",
"9 	c #F80000",
"0 	c #D60303",
"a 	c #900B0B",
"b 	c #5D1010",
"c 	c #580F0F",
"d 	c #6D3333",
"e 	c #D3CDCD",
"f 	c #A54D4D",
"g 	c #8B1818",
"h 	c #9A1515",
"i 	c #EE0F0F",
"j 	c #FF1515",
"k 	c #FF1B1B",
"l 	c #FF1A1A",
"m 	c #FF1313",
"n 	c #FD0101",
"o 	c #F30000",
"p 	c #E80000",
"q 	c #B30505",
"r 	c #570D0D",
"s 	c #4D0D0D",
"t 	c #734444",
"u 	c #DBDADA",
"v 	c #BF9090",
"w 	c #921515",
"x 	c #F30808",
"y 	c #FF1212",
"z 	c #FF1D1D",
"A 	c #FF2727",
"B 	c #FF2525",
"C 	c #F60000",
"D 	c #EA0000",
"E 	c #DE0000",
"F 	c #AB0404",
"G 	c #480C0C",
"H 	c #420B0B",
"I 	c #A28B8B",
"J 	c #943232",
"K 	c #831717",
"L 	c #D60707",
"M 	c #FF0707",
"N 	c #FF1F1F",
"O 	c #FF2929",
"P 	c #FF0F0F",
"Q 	c #FF0404",
"R 	c #F70000",
"S 	c #DF0000",
"T 	c #D30000",
"U 	c #770707",
"V 	c #3C0A0A",
"W 	c #502626",
"X 	c #CAB0B0",
"Y 	c #821616",
"Z 	c #921212",
"` 	c #FF1818",
" .	c #FF0C0C",
"..	c #FE0202",
"+.	c #F40000",
"@.	c #E90000",
"#.	c #DD0000",
"$.	c #D20000",
"%.	c #B40101",
"&.	c #370909",
"*.	c #310808",
"=.	c #B8ACAC",
"-.	c #B38181",
";.	c #B00B0B",
">.	c #FF0D0D",
",.	c #FF0505",
"'.	c #FA0000",
").	c #F00000",
"!.	c #E50000",
"~.	c #DA0000",
"{.	c #CF0000",
"].	c #C30000",
"^.	c #4A0707",
"/.	c #2B0707",
"(.	c #8C7A7A",
"_.	c #A46767",
":.	c #761414",
"<.	c #BD0707",
"[.	c #ED0000",
"}.	c #FF0606",
"|.	c #FB0000",
"1.	c #E00000",
"2.	c #D50000",
"3.	c #CA0000",
"4.	c #C00000",
"5.	c #5C0404",
"6.	c #250606",
"7.	c #705E5E",
"8.	c #9E6464",
"9.	c #701313",
"0.	c #BA0606",
"a.	c #F10000",
"b.	c #E20000",
"c.	c #D90000",
"d.	c #C50000",
"e.	c #BA0000",
"f.	c #5B0303",
"g.	c #1F0505",
"h.	c #695A5A",
"i.	c #A47272",
"j.	c #691212",
"k.	c #A80707",
"l.	c #DC0000",
"m.	c #E30000",
"n.	c #EC0000",
"o.	c #EE0000",
"p.	c #EB0000",
"q.	c #E70000",
"r.	c #E10000",
"s.	c #D10000",
"t.	c #C80000",
"u.	c #BF0000",
"v.	c #B50000",
"w.	c #470303",
"x.	c #190404",
"y.	c #776A6A",
"z.	c #B79999",
"A.	c #860B0B",
"B.	c #D70000",
"C.	c #D00000",
"D.	c #C90000",
"E.	c #B70000",
"F.	c #AB0000",
"G.	c #210303",
"H.	c #130303",
"I.	c #9B9494",
"J.	c #D6D0D0",
"K.	c #621616",
"L.	c #5D0F0F",
"M.	c #BF0101",
"N.	c #CE0000",
"O.	c #D60000",
"P.	c #D40000",
"Q.	c #CC0000",
"R.	c #C60000",
"S.	c #B80000",
"T.	c #AF0000",
"U.	c #750101",
"V.	c #110303",
"W.	c #140909",
"X.	c #D1CFCF",
"Y.	c #8F6262",
"Z.	c #520E0E",
"`.	c #790808",
" +	c #C70000",
".+	c #C10000",
"++	c #BC0000",
"@+	c #B60000",
"#+	c #AE0000",
"$+	c #9F0000",
"%+	c #230202",
"&+	c #0B0202",
"*+	c #615959",
"=+	c #D1C9C9",
"-+	c #591C1C",
";+	c #860505",
">+	c #BB0000",
",+	c #BD0000",
"'+	c #BE0000",
")+	c #B10000",
"!+	c #A10000",
"~+	c #390101",
"{+	c #0A0101",
"]+	c #171111",
"^+	c #CAC8C8",
"/+	c #B5A3A3",
"(+	c #450F0F",
"_+	c #3D0A0A",
":+	c #6A0606",
"<+	c #AA0101",
"[+	c #B20000",
"}+	c #A60000",
"|+	c #8A0000",
"1+	c #2C0101",
"2+	c #090101",
"3+	c #090404",
"4+	c #A3A0A0",
"5+	c #AF9D9D",
"6+	c #401414",
"7+	c #320808",
"8+	c #350707",
"9+	c #5E0404",
"0+	c #7C0202",
"a+	c #890101",
"b+	c #830101",
"c+	c #6B0101",
"d+	c #3D0202",
"e+	c #0E0202",
"f+	c #070101",
"g+	c #0F0B0B",
"h+	c #9E9A9A",
"i+	c #C7C0C0",
"j+	c #654949",
"k+	c #290707",
"l+	c #220606",
"m+	c #1E0505",
"n+	c #140303",
"o+	c #0F0202",
"p+	c #0B0101",
"q+	c #070202",
"r+	c #494444",
"s+	c #C1BFBF",
"t+	c #C2BBBB",
"u+	c #837474",
"v+	c #574646",
"w+	c #3E2F2F",
"x+	c #3A2E2E",
"y+	c #4D4444",
"z+	c #787272",
"A+	c #BDBABA",
"              . + @ # $ %               ",
"          & * = - ; > , ' ) !           ",
"        ~ { ] - ^ / ( _ : < [ } |       ",
"      1 2 3 4 5 6 7 8 9 0 a b c d e     ",
"    f g h i j k l m 7 n o p q r s t u   ",
"  v ] w x y z A B l 6 8 C D E F G H I   ",
"  J K L M m N O A k P Q R D S T U V W   ",
"X Y Z 9 Q P ` N z j  ...+.@.#.$.%.&.*.=.",
"-.> ;.o n M P m y >.,.'.).!.~.{.].^./.(.",
"_.:.<.[.C n Q M }.8 |.o D 1.2.3.4.5.6.7.",
"8.9.0.!.[.o 9 '.'.R a.D b.c.{.d.e.f.g.h.",
"i.j.k.l.m.@.n.o.o.p.q.r.~.s.t.u.v.w.x.y.",
"z.[ A.$.c.#.r.b.b.1.l.B.C.D.4.E.F.G.H.I.",
"J.K.L.M.N.$.2.O.O.P.s.Q.R.4.S.T.U.V.W.X.",
"  Y.Z.`.]. +D.3.3.D.R..+++@+#+$+%+&+*+  ",
"  =+-+G ;+>+,+'+'+,+e.@+)+F.!+~+{+]+^+  ",
"    /+(+_+:+<+[+[+)+#+F.}+|+1+2+3+4+    ",
"      5+6+7+8+9+0+a+b+c+d+e+f+g+h+      ",
"        i+j+k+l+m+x.n+o+p+q+r+s+        ",
"            t+u+v+w+x+y+z+A+            "};
