/* XPM */
static const char *selectoff[]={
"16 16 4 1",
"# c None",
"a c #808080",
". c #a0a0a0",
"b c #c3c3c3",
"............####",
".##########.####",
".##########.####",
".##########.####",
".##########.####",
".##########.####",
"............####",
"###########aa###",
"###########aaa##",
"###########aaaa#",
"###########aaaaa",
"###########aaaab",
"###########aaaab",
"###########a#aaa",
"##############aa",
"##############aa"};
