/* XPM */
static const char *statenew[]={
"16 16 5 1",
". c None",
"# c #000000",
"b c #303030",
"c c #808080",
"a c #a0a0a0",
"............#a..",
"............#a..",
"............#a..",
".........#######",
"..........aa#aaa",
"...######...#a..",
"..##....##a.#a..",
".#a..b....#a.a..",
"##a.bcb...##a...",
"#a..c.c....#a...",
"#abbbbbbbb.#a...",
"#a.........#a...",
"##a.b.bb..##a...",
".#a.......#a....",
"..##....##a.....",
"...######a......"};
