/* XPM */
static const char *statenewoff[]={
"16 16 4 1",
". c None",
"# c #808080",
"b c #a0a0a0",
"a c #c3c3c3",
"............#a..",
"............#a..",
"............#a..",
".........#######",
"..........aa#aaa",
"...######...#a..",
"..##....##a.#a..",
".#a..b....#a.a..",
"##a.b#b...##a...",
"#a..#.#....#a...",
"#abbbbbbbb.#a...",
"#a.........#a...",
"##a.b.bb..##a...",
".#a.......#a....",
"..##....##a.....",
"...######a......"};
