/* XPM */
static const char * tick_xpm[] = {
"20 20 131 2",
"  	c None",
". 	c #BABDBA",
"+ 	c #A9AFA9",
"@ 	c #D5D5D5",
"# 	c #C3C3C3",
"$ 	c #2B822B",
"% 	c #09AE09",
"& 	c #4D894D",
"* 	c #CBCCCB",
"= 	c #B7C8B7",
"- 	c #299129",
"; 	c #00E800",
"> 	c #00FD00",
", 	c #01DF01",
"' 	c #588258",
") 	c #D9D9D9",
"! 	c #D8D9D8",
"~ 	c #2C982C",
"{ 	c #00EC00",
"] 	c #00FF00",
"^ 	c #00FE00",
"/ 	c #00CC00",
"( 	c #165416",
"_ 	c #BABABA",
": 	c #9EB69E",
"< 	c #03D203",
"[ 	c #00FA00",
"} 	c #00BC00",
"| 	c #044C04",
"1 	c #353635",
"2 	c #CDCDCD",
"3 	c #42A242",
"4 	c #00FB00",
"5 	c #00FC00",
"6 	c #00BA00",
"7 	c #074107",
"8 	c #393A39",
"9 	c #CED3CE",
"0 	c #80AB80",
"a 	c #7EA57E",
"b 	c #ADBEAD",
"c 	c #07CF07",
"d 	c #00CF00",
"e 	c #065806",
"f 	c #484948",
"g 	c #CCCCCC",
"h 	c #D3D4D3",
"i 	c #3C993C",
"j 	c #00E600",
"k 	c #01E301",
"l 	c #5B8E5B",
"m 	c #DADADA",
"n 	c #D7D7D7",
"o 	c #359F35",
"p 	c #00E100",
"q 	c #055B05",
"r 	c #4F504F",
"s 	c #66AB66",
"t 	c #00F100",
"u 	c #04C304",
"v 	c #94A094",
"w 	c #7FA97F",
"x 	c #01D901",
"y 	c #00F200",
"z 	c #036703",
"A 	c #494B49",
"B 	c #D4D4D4",
"C 	c #6CAC6C",
"D 	c #04CD04",
"E 	c #00F900",
"F 	c #00F600",
"G 	c #1A991A",
"H 	c #C1C2C1",
"I 	c #CFD5CF",
"J 	c #17AA17",
"K 	c #01A801",
"L 	c #273127",
"M 	c #C6C6C6",
"N 	c #CFD0CF",
"O 	c #7F907F",
"P 	c #0EAC0E",
"Q 	c #568456",
"R 	c #97B597",
"S 	c #01DC01",
"T 	c #00E400",
"U 	c #0B4D0B",
"V 	c #959595",
"W 	c #CBCBCB",
"X 	c #6D8F6D",
"Y 	c #07BB07",
"Z 	c #07B407",
"` 	c #94AD94",
" .	c #53A553",
"..	c #00F500",
"+.	c #02AA02",
"@.	c #3F403F",
"#.	c #5E8E5E",
"$.	c #04BA04",
"%.	c #00F800",
"&.	c #08C208",
"*.	c #08D108",
"=.	c #00EA00",
"-.	c #096D09",
";.	c #8E8E8E",
">.	c #C5C5C5",
",.	c #628662",
"'.	c #05C505",
").	c #01C901",
"!.	c #233323",
"~.	c #CECECE",
"{.	c #C6C7C6",
"].	c #5B8A5B",
"^.	c #01E601",
"/.	c #00F400",
"(.	c #066B06",
"_.	c #737373",
":.	c #ADAEAD",
"<.	c #239223",
"[.	c #00EF00",
"}.	c #0C450C",
"|.	c #B3B3B3",
"1.	c #818C81",
"2.	c #03C303",
"3.	c #00D500",
"4.	c #1D501D",
"5.	c #D1D1D1",
"6.	c #D0D0D0",
"7.	c #386638",
"8.	c #075C07",
"9.	c #454B45",
"0.	c #949494",
"                                        ",
"                              . + @     ",
"                            # $ % & *   ",
"                          = - ; > , ' ) ",
"                        ! ~ { ] ^ / ( _ ",
"                        : < ] [ } | 1 2 ",
"                        3 4 5 6 7 8 _   ",
"    9 0 a @           b c ^ d e f g     ",
"  h i j k l m       n o 5 p q r 2       ",
"  s t ] > u v       w x y z A B         ",
"  C D E ] F G H   I J 5 K L M           ",
"  N O P [ ] p Q   R S T U V             ",
"    W X Y 5 ^ Z `  ...+.@.n             ",
"      * #.$.%.%.&.*.=.-.;.              ",
"        >.,.'.] ] > ).!.~.              ",
"          {.].^.] /.(._.                ",
"            :.<.[.t }.|.                ",
"            m 1.2.3.4.5.                ",
"              6.7.8.9.)                 ",
"                M 0.#                   "};
