/* XPM */
static const char *transnewoff[]={
"16 16 3 1",
". c None",
"# c #808080",
"a c #c3c3c3",
"............#...",
"............#a..",
"............#a..",
".#a......#######",
".#a.......aa#aaa",
"..#a........#a..",
"...#a.......#a..",
"...#a........a..",
"....#a..........",
".....#a....a....",
"......#aa..#a...",
".......##aa##a..",
".........#####aa",
".........a######",
".........#######",
"................"};
