/* XPM */
static const char * transnew[] = {
"16 16 6 1",
" 	c None",
".	c #000000",
"+	c #A0A0A0",
"@	c #303030",
"#	c #C3C3C3",
"$	c #808080",
"            .   ",
"            .+  ",
"            .+  ",
" @+      .......",
" .+       ++.+++",
"  .+        .+  ",
"   .+       .+  ",
"   .+        +  ",
"    .+          ",
"     .+    #    ",
"      .++  .#   ",
"       ..+$..#  ",
"         .....##",
"         #......",
"         .......",
"                "};
