/* XPM */
static const char *transstraightenoff[]={
"16 16 3 1",
". c None",
"# c #a0a0a0",
"a c #c3c3c3",
"................",
"................",
"............##a.",
"..........####a.",
"........#####a..",
".......#aa###a..",
".........#a#a...",
"........#aa#a...",
".......#a.#a....",
"......#a........",
".....#a.........",
"....#a..........",
"...#a...........",
"..#a............",
".#a.............",
"................"};
