/* XPM */
static const char *zoomin[]={
"16 16 5 1",
". c None",
"# c #000000",
"b c #585858",
"c c #a0a0a0",
"a c #ffffff",
"...#####........",
"..##....##......",
".#..a.....#.....",
".#.aa.....##....",
"#.aa.......#....",
"#.a........#....",
"#.a........#....",
"#..........#....",
"##........#.....",
".#........##....",
"..##....#####...",
"..b.#####.b###..",
"..#........b###.",
"#####.......b###",
"..#..........b##",
"..#...........bc"};
